<svg xmlns="http://www.w3.org/2000/svg" width="70" height="70" viewBox="0 0 70 70">
  <g id="Muzli" transform="translate(53 -114)">
    <path id="Muzli_logo" data-name="Muzli logo" d="M35,70A35,35,0,1,1,70,35,35,35,0,0,1,35,70ZM49.892,42.528a.646.646,0,0,0-1.088-.062c-.3.3-.556.627-.824.956-4.186,3.022-4.26.037-4.212-.7a14.236,14.236,0,0,1,.759-2.275c.77-1.937,1.808-3.543,2.642-5.48.513-1.227,1.09-2.453,1.539-3.744a2.68,2.68,0,0,0-.513-2.646A2.649,2.649,0,0,0,45.5,28a10.347,10.347,0,0,0-3.976,2.13c-.192.194-.449.322-.642.516,0-.194.065-.322.065-.452a4.464,4.464,0,0,0,.256-3.163,2.388,2.388,0,0,0-.962-1.291,3.971,3.971,0,0,0-3.078-.193,9.761,9.761,0,0,0-4.04,2.517c-.32.323-.705.644-1.026,1.033a11.56,11.56,0,0,0,.321-2.066c0-1.743-1.026-2.839-2.757-3.42a8.552,8.552,0,0,0-4.04-.064,10.1,10.1,0,0,0-3.783,1.484,4.483,4.483,0,0,0-1.859,2.066,2.5,2.5,0,0,0,0,1.677,1.1,1.1,0,0,0,1.8.516c.9-.581,1.667-1.29,2.564-1.935a8.256,8.256,0,0,1,4.489-2.066,1.137,1.137,0,0,1,1.282.775,1.45,1.45,0,0,1,0,.9,9.358,9.358,0,0,1-.705,1.872c-.833,1.485-1.732,2.9-2.693,4.389-1.218,1.872-2.565,3.743-3.784,5.614-.9,1.355-1.731,2.776-2.5,4.131a3.123,3.123,0,0,0-.514,2.13,1.856,1.856,0,0,0,2.309,1.355A3.639,3.639,0,0,0,23.7,44.97l2.116-3.679a64.968,64.968,0,0,1,6.092-9.358A19.2,19.2,0,0,1,35.881,28a4.818,4.818,0,0,1,2.308-.9.528.528,0,0,1,.641.451,2.653,2.653,0,0,1,.064,1.226,11.679,11.679,0,0,1-1.026,2.452c-1.6,2.775-3.269,5.551-4.874,8.326a39.992,39.992,0,0,0-1.923,3.678,1.443,1.443,0,0,0,.706,1.872c.77.387,1.666.387,2.052-.387,1.41-2.775,2.885-5.551,4.36-8.261A14.8,14.8,0,0,1,43,30.9a6.732,6.732,0,0,1,2.5-1.1c.513-.129.9.129.833.645a1.487,1.487,0,0,1-.257.9c-.641,1.226-1.346,2.387-1.988,3.614A24.044,24.044,0,0,0,41.267,40.9,5.088,5.088,0,0,0,41.2,44a4.114,4.114,0,0,0,3.631,2.629c.058.012.124.022.2.03a5.062,5.062,0,0,0,2.308-.479,5.928,5.928,0,0,0,1.967-1.315,2.584,2.584,0,0,0,.8-1.4A1.427,1.427,0,0,0,49.892,42.528Z" transform="translate(-53 114)" fill="#fff"/>
  </g>
</svg>
